# xmcd
#
# Track frame offsets:
#	150
#	16003
#	30459
#	47866
#	61407
#	77260
#	91716
#	109123
#
# Disc length: 1635 seconds
#
# Revision: 0
# Processed by: cddbd v1.5.1PL2 Copyright (c) Steve Scherf et al.
# Submitted via: audiograbber 1.83.01
#
DISCID=4d066108
DTITLE=Keith, Toby - KBA2838
DYEAR=1900
DGENRE=Karaoke
TTITLE0=My List
TTITLE1=I Wanna Talk About Me
TTITLE2=Should've Been A Cowboy
TTITLE3=A Little Less Talk, Alot More Action
TTITLE4=My List (Vocal)
TTITLE5=I Wanna Talk About Me (Vocal)
TTITLE6=Should've Been A Cowboy (Vocal)
TTITLE7=A Little Less Talk, Alot More Action (Vocal)
EXTD=Karaoke Songs Are Not By The Original Artist
EXTT0=
EXTT1=
EXTT2=
EXTT3=
EXTT4=
EXTT5=
EXTT6=
EXTT7=
PLAYORDER=
